<?xml version="1.0" encoding="UTF-8" standalone="no"?>
<!-- Generator: Adobe Illustrator 16.0.0, SVG Export Plug-In . SVG Version: 6.00 Build 0)  -->

<svg
   xmlns:dc="http://purl.org/dc/elements/1.1/"
   xmlns:cc="http://creativecommons.org/ns#"
   xmlns:rdf="http://www.w3.org/1999/02/22-rdf-syntax-ns#"
   xmlns:svg="http://www.w3.org/2000/svg"
   xmlns="http://www.w3.org/2000/svg"
   xmlns:sodipodi="http://sodipodi.sourceforge.net/DTD/sodipodi-0.dtd"
   xmlns:inkscape="http://www.inkscape.org/namespaces/inkscape"
   version="1.1"
   id="Layer_1"
   x="0px"
   y="0px"
   width="62.613998"
   height="89.090065"
   viewBox="0 0 62.613997 89.090061"
   enable-background="new 0 0 841.89 595.28"
   preserveAspectRatio="none"
   xml:space="preserve"
   inkscape:version="0.91 r13725"
   sodipodi:docname="br.svg"><metadata
     id="metadata3369"><rdf:RDF><cc:Work
         rdf:about=""><dc:format>image/svg+xml</dc:format><dc:type
           rdf:resource="http://purl.org/dc/dcmitype/StillImage" /><dc:title></dc:title></cc:Work></rdf:RDF></metadata><defs
     id="defs3367" /><sodipodi:namedview
     pagecolor="#ffffff"
     bordercolor="#666666"
     borderopacity="1"
     objecttolerance="10"
     gridtolerance="10"
     guidetolerance="10"
     inkscape:pageopacity="0"
     inkscape:pageshadow="2"
     inkscape:window-width="1855"
     inkscape:window-height="1056"
     id="namedview3365"
     showgrid="false"
     fit-margin-top="1"
     fit-margin-left="1"
     fit-margin-right="1"
     fit-margin-bottom="1"
     inkscape:showpageshadow="true"
     showborder="true"
     borderlayer="false"
     inkscape:zoom="1.5438112"
     inkscape:cx="32.317007"
     inkscape:cy="93.144012"
     inkscape:window-x="65"
     inkscape:window-y="24"
     inkscape:window-maximized="1"
     inkscape:current-layer="Layer_1"
     inkscape:snap-grids="true" /><g
     id="g3337"
     transform="matrix(0.79695773,0,0,0.71736839,-303.74408,-167.19622)"><path
       d="m 434.357,326.548 c -0.34,-0.523 -0.811,-0.957 -1.41,-1.301 -0.568,-0.314 -1.264,-0.473 -2.082,-0.473 -1.482,0 -2.695,0.613 -3.643,1.846 -0.945,1.23 -1.416,2.535 -1.416,4.494 0,3.775 2.006,6.564 5.92,6.564 1.293,0 2.398,-0.189 3.293,-0.598 0.281,0.238 0.646,0.381 1.045,0.381 l 1.611,0 c 0,-9.625 0,-19.252 0,-28.879 0,-3.609 -1.852,-5.404 -5.395,-5.486 -3.646,-0.086 -5.578,1.803 -5.578,5.486 l 0,7.375 1.658,0 c 0.473,0 0.859,-0.148 1.158,-0.447 0.303,-0.303 0.453,-0.688 0.453,-1.164 l 0,0 0,-6.434 c 0,-0.756 0.227,-1.309 0.682,-1.656 0.457,-0.346 0.969,-0.52 1.535,-0.52 0.564,0 1.064,0.174 1.504,0.52 0.441,0.348 0.664,0.902 0.664,1.656 l 0,18.636 0.001,0 z m -5.281,4.711 c 0,-1.139 0.234,-2.023 0.707,-2.656 0.473,-0.662 1.117,-0.994 1.934,-0.994 0.879,0 1.559,0.316 2.029,0.949 0.473,0.662 0.707,1.563 0.707,2.701 0,1.324 -0.223,2.289 -0.662,2.891 -0.469,0.662 -1.131,0.992 -1.979,0.992 -0.879,0 -1.557,-0.33 -2.029,-0.992 -0.472,-0.667 -0.707,-1.628 -0.707,-2.891 l 0,0 z"
       id="path3339"
       inkscape:connector-curvature="0"
       style="fill:#ffffff" /><path
       d="m 438.518,333.269 3.217,0 c 0.115,2.576 4.635,2.297 4.635,0.664 0,-1.254 -3.838,-1.445 -5.863,-2.49 -1.109,-0.572 -1.719,-1.531 -1.719,-2.803 0,-5.467 10.186,-5.621 10.461,0.102 l -3.006,0 c -0.377,-2.43 -4.186,-1.959 -4.186,-0.486 0,1.879 8.205,0.811 7.6,5.838 -0.631,5.227 -11.139,5.313 -11.139,-0.682 l 0,-0.143 0,0 z"
       id="path3341"
       inkscape:connector-curvature="0"
       style="fill:#ffffff" /><path
       d="m 409.572,324.853 1.708,0 c 0.44,0 0.82,0.158 1.138,0.473 0.315,0.314 0.473,0.693 0.473,1.135 l 0,10.977 -3.318,0 0,-12.585 -10e-4,0 z"
       id="path3343"
       inkscape:connector-curvature="0"
       style="fill:#ffffff" /><path
       d="m 400.602,337.437 -3.27,0 0,-7.385 0,-0.662 c 0,-0.754 -0.226,-1.307 -0.683,-1.654 -0.456,-0.348 -0.968,-0.521 -1.534,-0.521 -0.565,0 -1.066,0.174 -1.506,0.521 -0.44,0.347 -0.662,0.9 -0.662,1.654 l 0,8.047 -3.318,0 c 0,-4.287 0,-8.576 0,-12.863 l 1.61,0 c 0.495,0 0.936,0.221 1.23,0.568 0.801,-0.336 1.653,-0.525 2.557,-0.568 0.727,0 1.437,0.082 2.131,0.238 0.694,0.158 1.324,0.473 1.894,0.945 0.472,-0.412 1.034,-0.703 1.679,-0.877 0.646,-0.172 1.316,-0.273 2.011,-0.307 1.389,0 2.668,0.363 3.835,1.086 1.167,0.727 1.752,2.193 1.752,4.4 l 0,7.377 -1.659,0 c -0.473,0 -0.86,-0.15 -1.159,-0.449 -0.303,-0.303 -0.452,-0.686 -0.452,-1.162 l 0,0 0,-6.436 c 0,-0.754 -0.23,-1.307 -0.687,-1.654 -0.46,-0.348 -0.973,-0.521 -1.542,-0.521 -0.569,0 -1.082,0.174 -1.542,0.521 -0.456,0.348 -0.686,0.9 -0.686,1.654 l 0,0.662 0,7.386 10e-4,0 z"
       id="path3345"
       inkscape:connector-curvature="0"
       style="fill:#ffffff" /><path
       d="m 421.83,303.376 1.707,0 c 0.439,0 0.82,0.156 1.139,0.471 0.314,0.316 0.473,0.695 0.473,1.135 l 0,10.977 -3.318,0 0,-12.583 -0.001,0 z"
       id="path3347"
       inkscape:connector-curvature="0"
       style="fill:#ffffff" /><path
       d="m 417.353,315.667 c -1.852,0.771 -4.896,0.828 -6.578,-0.391 -0.852,-0.613 -1.28,-1.631 -1.28,-3.053 0,-3.287 2.693,-3.859 5.45,-4.17 3.194,-0.428 2.395,-2.199 -0.398,-2.363 -2.924,-0.172 -5.608,-0.111 -7.945,1.482 -0.462,0.43 -0.781,0.973 -0.887,1.656 -0.026,0.201 -0.039,0.416 -0.039,0.646 l 0,6.482 -3.318,0 c 0,-4.326 0,-8.652 0,-12.979 l 1.611,0 c 0.709,0 1.307,0.451 1.524,1.084 0.316,-0.146 0.651,-0.27 1.007,-0.369 2.633,-0.965 9.837,-1.361 12.281,0.303 0.938,0.645 1.354,1.533 1.385,2.652 0.08,2.934 -0.012,5.99 -0.012,8.938 0,0.803 0.188,1.389 0.561,1.764 0.372,0.373 0.948,0.561 1.723,0.561 l 10.68,0 0,2.863 c -3.383,0 -6.797,-0.014 -10.16,-0.014 -1.35,0 -2.807,-0.314 -3.887,-1.16 -1.209,-0.963 -1.658,-2.44 -1.718,-3.932 l 0,0 z m 25.085,0.238 -4.4,-12.543 3.641,0 2.557,8.895 2.527,-8.895 3.479,0 -4.824,14.623 c -0.346,1.047 -0.834,1.805 -1.418,2.219 -1.078,0.768 -3.654,0.57 -5.078,0.57 l 0,-2.863 1.676,0 c 1.379,0 2.367,-0.496 1.84,-2.006 l 0,0 z m -25.361,-6.269 c -0.891,0.445 -1.971,0.639 -2.939,0.852 -0.901,0.25 -1.566,0.615 -1.566,1.656 0,1.055 0.661,1.514 1.659,1.514 0.884,0 1.583,-0.254 2.087,-0.76 0.505,-0.504 0.759,-1.193 0.759,-2.078 l 0,-1.184 0,0 z"
       id="path3349"
       inkscape:connector-curvature="0"
       style="fill:#ffffff" /><path
       d="m 392.851,300.386 -0.004,4.648 c 0.343,-0.598 0.847,-1.086 1.509,-1.465 0.569,-0.314 1.264,-0.473 2.083,-0.473 1.481,0 2.694,0.613 3.641,1.846 0.946,1.229 1.417,2.535 1.417,4.492 0,3.775 -2.007,6.564 -5.922,6.564 -3.769,0 -5.947,-1.613 -5.947,-5.527 l 0,-11.697 1.61,0 c 0.445,0 0.822,0.156 1.139,0.473 0.318,0.316 0.474,0.695 0.474,1.139 l 0,0 z m 5.377,9.193 c 0,-1.139 -0.234,-2.021 -0.707,-2.656 -0.472,-0.662 -1.118,-0.992 -1.934,-0.992 -0.88,0 -1.558,0.314 -2.031,0.949 -0.472,0.662 -0.706,1.561 -0.706,2.699 0,1.324 0.222,2.289 0.662,2.891 0.468,0.662 1.13,0.994 1.978,0.994 0.88,0 1.558,-0.332 2.03,-0.994 0.474,-0.666 0.708,-1.627 0.708,-2.891 l 0,0 z"
       id="path3351"
       inkscape:connector-curvature="0"
       style="fill:#ffffff" /><path
       d="m 414.171,337.438 1.659,0 c 0.952,0 1.61,-0.658 1.61,-1.611 l 0,0 0,-6.434 c 0,-0.756 0.227,-1.309 0.683,-1.656 0.897,-0.684 2.147,-0.703 3.041,0 0.439,0.348 0.662,0.902 0.662,1.656 l 0,8.068 3.318,0 0,-7.398 c 0,-3.609 -1.852,-5.404 -5.394,-5.486 -3.647,-0.086 -5.579,1.803 -5.579,5.486 l 0,7.375 0,0 z"
       id="path3353"
       inkscape:connector-curvature="0"
       style="fill:#ffffff" /><path
       d="m 408.679,257.251 c -0.196,-0.027 -0.363,-0.043 -0.562,-0.057 -0.776,-0.051 -1.575,0.008 -2.367,0.174 l 0,-2.198 c 0.832,-0.14 1.674,-0.184 2.502,-0.129 1.884,0.124 3.69,0.76 5.154,1.917 1.475,1.167 2.59,2.848 3.075,5.052 0.225,1.023 0.346,2.21 0.402,3.475 0.944,-0.252 1.936,-0.386 2.958,-0.386 3.16,0 6.023,1.282 8.094,3.353 2.072,2.071 3.354,4.933 3.354,8.094 0,3.161 -1.281,6.022 -3.354,8.094 -2.07,2.071 -4.934,3.353 -8.094,3.353 -2.413,0 -4.652,-0.748 -6.5,-2.024 -3.576,-2.473 -4.733,-6.5 -4.72,-10.722 l 0.058,-17.996 0,0 z m 4.295,2.188 -0.009,13.423 0.003,3.494 0,0.004 c -0.001,0.062 -0.002,0.124 -0.002,0.186 0,0.296 0.019,0.587 0.055,0.873 l 0,0 c 0.429,3.386 3.319,6.003 6.822,6.003 3.799,0 6.877,-3.079 6.877,-6.877 0,-1.954 -0.814,-3.718 -2.123,-4.97 l 1.145,-1.216 -1.148,1.214 c -1.234,-1.18 -2.906,-1.905 -4.75,-1.905 -2.003,0 -3.807,0.857 -5.063,2.224 l -0.153,-0.144 c 0.004,-2.42 0.099,-5.189 -10e-4,-6.813 -0.044,-1.011 -0.124,-1.875 -0.254,-2.47 -0.236,-1.057 -0.851,-2.292 -1.399,-3.026 l 0,0 z m 1.651,12.315 0.15,0.142 c -0.051,0.056 -0.101,0.113 -0.15,0.17 l 0,-0.312 0,0 z"
       id="path3355"
       inkscape:connector-curvature="0"
       style="fill:#ffffff" /><path
       d="m 435.662,287.773 c -0.244,-0.443 -0.426,-0.907 -0.545,-1.376 l -0.002,0 c -0.008,-0.036 -0.016,-0.071 -0.021,-0.106 -0.301,-1.271 -0.178,-2.601 0.277,-3.759 0.477,-1.217 1.324,-2.263 2.436,-2.878 0.338,-0.186 0.707,-0.334 1.107,-0.436 l 0.52,2.041 c -0.207,0.053 -0.41,0.137 -0.609,0.246 -0.666,0.368 -1.184,1.022 -1.486,1.796 -0.305,0.775 -0.391,1.656 -0.197,2.489 0.01,0.027 0.018,0.055 0.025,0.083 l -0.006,0.001 0.002,10e-4 -1.021,0.26 1.025,-0.26 c 0.078,0.305 0.193,0.602 0.348,0.882 l -1.853,1.016 0,0 z"
       id="path3357"
       inkscape:connector-curvature="0"
       style="fill:#ffffff" /><path
       d="m 431.898,291.305 c 0.756,-0.245 1.496,-0.858 2.115,-1.679 0.795,-1.055 1.357,-2.416 1.496,-3.787 l 1.221,0.121 -1.223,-0.125 c 0.063,-0.616 0.568,-1.079 1.168,-1.105 1.641,-0.233 2.869,-1.072 3.727,-2.218 0.861,-1.15 1.367,-2.625 1.557,-4.139 0.189,-1.536 0.053,-3.084 -0.377,-4.364 -0.234,-0.701 -0.553,-1.313 -0.941,-1.777 -1.514,0.644 -2.971,0.9 -4.334,0.854 -1.918,-0.065 -3.623,-0.728 -5.018,-1.756 -1.385,-1.019 -2.469,-2.398 -3.154,-3.909 -0.586,-1.289 -0.885,-2.687 -0.838,-4.051 l 2.4,0.076 c -0.033,0.987 0.191,2.019 0.631,2.986 0.521,1.147 1.34,2.191 2.381,2.958 1.031,0.759 2.279,1.248 3.672,1.295 0.783,0.027 1.619,-0.084 2.496,-0.362 0,-0.062 0.006,-0.125 0.016,-0.187 0.109,-0.944 0.043,-1.893 -0.18,-2.829 -0.689,-2.924 -2.852,-5.73 -5.693,-7.925 -2.883,-2.227 -6.443,-3.801 -9.879,-4.223 -1.477,-0.181 -2.923,-0.148 -4.271,0.141 0.504,0.819 0.893,1.759 1.138,2.821 0.242,1.05 0.377,2.273 0.447,3.577 l -2.263,0.024 c -0.051,-1.29 -0.146,-2.398 -0.313,-3.118 -0.392,-1.698 -1.247,-2.972 -2.363,-3.836 -0.598,-0.463 -1.275,-0.813 -2,-1.053 -3.618,-0.774 -7.258,-0.345 -10.477,0.938 -1.751,0.698 -3.375,1.647 -4.803,2.792 -0.068,3.037 -0.24,7.833 0.164,9.669 0.317,1.442 1.03,2.53 1.968,3.271 0.947,0.75 2.136,1.163 3.388,1.245 0.688,0.045 1.396,-0.01 2.096,-0.164 l 0.391,1.809 c -0.861,0.189 -1.741,0.256 -2.603,0.2 -0.073,-0.005 -0.146,-0.011 -0.22,-0.018 0.029,0.155 0.051,0.31 0.065,0.465 0.11,1.173 -0.192,2.351 -0.786,3.339 -0.562,0.933 -1.387,1.703 -2.379,2.152 0.377,1.88 1.979,3.681 4.373,4.917 -0.136,-1.773 -0.23,-4.896 -0.295,-6.647 l 2.621,0 0.066,0.084 c 0.029,1.976 0.082,6.11 0.313,7.16 0.451,2.053 1.466,3.6 2.801,4.656 1.348,1.067 3.039,1.654 4.821,1.771 0.946,0.063 12.681,-0.009 13.646,-0.212 l 0,2.679 c -1.014,0.171 -12.801,0.224 -13.81,0.158 -2.297,-0.152 -4.499,-0.926 -6.283,-2.337 -1.368,-1.083 -2.483,-2.529 -3.198,-4.343 -0.573,-0.21 -1.121,-0.447 -1.64,-0.707 -2.829,-1.417 -4.841,-3.545 -5.611,-5.887 -0.573,-0.071 -1.132,-0.216 -1.672,-0.428 -1.838,-0.722 -3.461,-2.22 -4.63,-4.195 -1.13,-1.91 -1.846,-4.291 -1.919,-6.852 -0.056,-1.969 0.267,-4.043 1.071,-6.092 0.192,-0.49 0.411,-0.974 0.652,-1.45 2.095,-4.122 5.928,-7.486 10.509,-9.313 4.579,-1.825 9.913,-2.125 15.012,-0.122 0.464,0.182 0.928,0.384 1.391,0.607 1.571,-0.314 3.229,-0.347 4.9,-0.142 3.867,0.476 7.861,2.236 11.082,4.723 3.264,2.52 5.762,5.81 6.588,9.308 0.225,0.951 0.326,1.917 0.289,2.887 1.15,0.779 1.996,2.062 2.512,3.595 0.545,1.626 0.725,3.558 0.492,5.44 -0.238,1.905 -0.9,3.792 -2.037,5.312 -1.086,1.452 -2.59,2.558 -4.553,3.025 -0.307,1.502 -0.965,2.943 -1.836,4.098 -1.084,1.436 -2.52,2.466 -4.064,2.711 l -0.012,-0.071 0,-2.441 -10e-4,0 z m -30.32,-18.222 c -0.851,-0.276 -1.648,-0.692 -2.353,-1.25 -1.263,-1 -2.219,-2.44 -2.634,-4.328 -0.492,-2.239 -0.401,-5.394 -0.303,-8.244 -0.99,1.077 -1.827,2.264 -2.472,3.532 -0.204,0.402 -0.391,0.816 -0.556,1.239 -0.681,1.733 -0.955,3.48 -0.908,5.13 0.061,2.125 0.652,4.095 1.584,5.67 0.894,1.511 2.089,2.639 3.408,3.157 0.418,0.165 0.849,0.268 1.283,0.302 l 0,0 c 1.017,-0.095 2.093,-0.962 2.602,-1.809 0.431,-0.716 0.65,-1.572 0.57,-2.425 -0.031,-0.328 -0.106,-0.654 -0.231,-0.971 l 0.01,-0.003 0,0 z m 38.527,-2.754 0.004,-0.006 -0.004,0.006 0,0 z"
       id="path3359"
       inkscape:connector-curvature="0"
       style="fill:#ffffff" /><path
       d="m 424.551,301.558 c 0.15,-0.002 0.301,-0.006 0.451,-0.016 1.904,-0.105 3.738,-0.729 5.229,-1.883 1.504,-1.164 2.648,-2.852 3.162,-5.074 0.242,-1.05 0.377,-2.273 0.447,-3.577 l -2.264,-0.024 c -0.053,1.29 -0.146,2.397 -0.313,3.118 -0.393,1.698 -1.248,2.972 -2.363,3.836 -1.127,0.874 -2.535,1.346 -4.014,1.426 -0.111,0.008 -0.223,0.012 -0.336,0.012 l 0,2.182 10e-4,0 z"
       id="path3361"
       inkscape:connector-curvature="0"
       style="fill:#ffffff" /><path
       d="m 421.623,301.96 c 0.15,-0.008 0.301,-0.018 0.449,-0.031 1.902,-0.164 3.713,-0.846 5.168,-2.047 1.467,-1.209 2.557,-2.933 3,-5.17 0.209,-1.057 0.307,-2.284 0.334,-3.589 l -2.264,0.047 c -0.01,1.291 -0.07,2.401 -0.213,3.125 -0.338,1.71 -1.152,3.01 -2.242,3.909 -1.098,0.908 -2.49,1.423 -3.965,1.552 -0.111,0.01 -0.225,0.018 -0.336,0.021 l 0.069,2.183 0,0 z"
       id="path3363"
       inkscape:connector-curvature="0"
       style="fill:#ffffff" /></g></svg>